<?xml version="1.0" encoding="utf-8"?>
<!-- Generator: Adobe Illustrator 26.2.1, SVG Export Plug-In . SVG Version: 6.00 Build 0)  -->
<svg version="1.1" id="Layer_1" xmlns="http://www.w3.org/2000/svg" xmlns:xlink="http://www.w3.org/1999/xlink" x="0px" y="0px"
	 viewBox="0 0 687 493" style="enable-background:new 0 0 687 493;" xml:space="preserve">
<style type="text/css">
	.st0{fill:none;stroke:url(#SVGID_1_);stroke-width:3.94;}
	.st1{fill:url(#SVGID_00000035506654940345848000000015989031374391514256_);}
	.st2{opacity:0.2;fill:#FFFFFF;enable-background:new    ;}
	.st3{fill:none;stroke:#45AE8F;stroke-width:3.94;}
	.st4{fill:none;stroke:#41A080;stroke-width:3.94;}
	.st5{fill-rule:evenodd;clip-rule:evenodd;fill:url(#SVGID_00000110461465131779235790000000023264344456378261_);}
	.st6{fill:url(#star2_00000104691821104674870000000011727456906460442043_);}
	.st7{fill:url(#star1_00000083793347620313543620000011690285775689906563_);}
	@keyframes starLight {
		0% {opacity: 1;}
		50% {opacity: 0;}
		100% {opacity: 1;}
	}
	@keyframes starDark {
		0% {opacity: 0;}
		50% {opacity: 1;}
		100% {opacity: 0;}
	}
	@keyframes spin {
		from {
			transform: rotate(0deg);
			transform-origin: 52% 55%;
		}
		to {
			transform: rotate(360deg);
			transform-origin: 52% 55.5%;
		}
	}
	@keyframes logoUp {
        0% {transform: translateY(-25px);}
        50% {transform: translateY(0px);}
        100% {transform: translateY(-25px);}
    }

	<!-- #spin {
		animation: spin 12s linear infinite;
	}
	#star1 {
		animation: starLight 5s linear infinite;
	}
	#star2 {
		animation: starDark 5s linear infinite;
	} -->
	#OBJECTS {
		transform-origin: 50% 50%;
		transform: translateX(-20px);
		animation: logoUp 5s infinite;
	}
</style>
<g id="OBJECTS">
	<g id="spin">
		
			<linearGradient id="SVGID_1_" gradientUnits="userSpaceOnUse" x1="479.6086" y1="1227.1421" x2="408.7628" y2="1648.77" gradientTransform="matrix(1 0 0 1 0 -1146.6699)">
			<stop  offset="0" style="stop-color:#D3E3E0"/>
			<stop  offset="1" style="stop-color:#D3E3E0;stop-opacity:0"/>
		</linearGradient>
		<path class="st0" d="M360.1,77.8c108.4,0,197,79.4,203.3,179.6c0.2,3.8,0.3,7.6,0.4,11.4c0,18.7-2.9,37.3-8.6,55.2
			c-18.8,58.6-66.9,105.3-128.3,125.3"/>
		
			<linearGradient id="SVGID_00000036229543701229372860000009580505945740706182_" gradientUnits="userSpaceOnUse" x1="269.6679" y1="1240.4858" x2="437.0706" y2="1595.9977" gradientTransform="matrix(1 0 0 1 0 -1146.6699)">
			<stop  offset="0" style="stop-color:#FFFFFF"/>
			<stop  offset="1" style="stop-color:#FFFFFF;stop-opacity:0.65"/>
		</linearGradient>
		<path style="fill:url(#SVGID_00000036229543701229372860000009580505945740706182_);" d="M352,462
			c-106.7,0-193.3-86.5-193.3-193.3S245.3,75.4,352,75.4S545.3,162,545.3,268.7S458.8,462,352,462z"/>
		<path class="st2" d="M168,328.2c32.7,101.6,141.5,157.5,243.2,124.9S568.7,311.6,536,209.9c-17.4-54.1-57.7-97.9-110.3-119.5
			c32.6,101.7-23.4,210.5-125.1,243.2C257.2,347.5,210.2,345.6,168,328.2L168,328.2z"/>
	</g>
	<path class="st3" d="M162.6,310.4c-67.3,28-116.9,60.2-112.1,79.8c8.3,33.7,147.4,29.1,310.7-10.1s289-98.5,280.7-132.1
		c-3.4-14-39.9-22.1-81.3-23.2"/>
	<path class="st4" d="M159.1,285.5c-67.5,28.3-116.9,59.6-112,79.7c8.4,34.3,147.2,30.4,310-8.8S645,257.8,636.6,223.4
		c-3.6-14.6-40.5-22.3-83.1-23.3"/>
	<line class="st4" x1="632.2" y1="198.2" x2="642.5" y2="251.2"/>
	
		<linearGradient id="SVGID_00000067217701021412085730000000783570576462833583_" gradientUnits="userSpaceOnUse" x1="35.6723" y1="1608.8375" x2="705.7302" y2="1186.8619" gradientTransform="matrix(1 0 0 1 0 -1146.6699)">
		<stop  offset="0" style="stop-color:#57F6DE"/>
		<stop  offset="1" style="stop-color:#3B8966"/>
	</linearGradient>
	<path style="fill-rule:evenodd;clip-rule:evenodd;fill:url(#SVGID_00000067217701021412085730000000783570576462833583_);" d="
		M544.4,184.4c32.2,0.9,52.4,6.6,55,17.4c6.8,27.8-105.1,78.8-249.9,114S81.8,356.9,75,329.1c-3.8-15.5,29.2-38.1,84.1-61.2
		c-0.1-2.5-0.2-5.1-0.3-7.6C84,290.5,37.7,321.8,42.9,343.2c8.4,34.6,147.6,30.5,310.9-9.2s289-99.9,280.5-134.6
		c-4.1-16.9-39.5-24.6-93.8-23.4C542,178.8,543.2,181.6,544.4,184.4z"/>
</g>
<linearGradient id="star2_00000145059399102387516460000000462066493407300525_" gradientUnits="userSpaceOnUse" x1="530.3727" y1="1184.3378" x2="496.4402" y2="1237.7679" gradientTransform="matrix(1 0 0 1 0 -1146.6699)">
	<stop  offset="0" style="stop-color:#FFFFFF"/>
	<stop  offset="1" style="stop-color:#FFFFFF;stop-opacity:0.65"/>
</linearGradient>
<path id="star2" style="fill:url(#star2_00000145059399102387516460000000462066493407300525_);" d="M513.7,97.3
	c0,0,0-33.4,24.7-33.4c-24.7,0-24.7-33.4-24.7-33.4s0,33.4-24.7,33.4C513.7,64,513.7,97.3,513.7,97.3z"/>
<linearGradient id="star1_00000158728752369408561260000009804412485220605117_" gradientUnits="userSpaceOnUse" x1="568.794" y1="1240.0128" x2="553.8248" y2="1264.468" gradientTransform="matrix(1 0 0 1 0 -1146.6699)">
	<stop  offset="0" style="stop-color:#FFFFFF"/>
	<stop  offset="1" style="stop-color:#FFFFFF;stop-opacity:0.65"/>
</linearGradient>
<path id="star1" style="fill:url(#star1_00000158728752369408561260000009804412485220605117_);" d="M561.4,120.3c0,0,0-15,11.5-15
	c-11.5,0-11.5-15-11.5-15s0,15-11.5,15C561.4,105.4,561.4,120.3,561.4,120.3z"/>
</svg>
